<?xml version="1.0" encoding="UTF-8"?><svg id="b" xmlns="http://www.w3.org/2000/svg" width="112.66" height="98.7" viewBox="0 0 112.66 98.7"><g id="c"><g><path d="M49.04,98.7C23.23,98.58,1.57,77.86,.09,52.26-1.4,26.6,16.72,4.04,42.46,.22c.3-.04,.61-.08,.91-.09,1.49-.09,2.94-.09,3.83,1.44,.88,1.49,.34,2.78-.5,4.06-3.12,4.72-5.45,9.8-6.41,15.39-2.86,16.79,2.01,30.87,15.13,41.88,9.01,7.56,19.48,10.64,31.17,9.65,1.48-.13,2.76,.29,3.53,1.65,.79,1.4,.3,2.66-.56,3.85-7.75,10.75-18.26,17.16-31.16,19.78-3.08,.63-6.22,.88-9.36,.89ZM38.1,7.62C21.84,10.94,7.38,28.59,6.29,45.45c-1.43,22.06,12.3,39.59,30.96,45.21,17,5.12,34.74-1.66,42.79-11.47-34.88-1.73-57.49-39.63-41.94-71.57Z"/><path d="M95.14,54.49c-1.4,.05-2.96-1.35-3.3-3.21-1.15-6.27-4.67-10.67-10.53-13.15-1.69-.72-3.43-1.41-3.28-3.59,.15-2.1,1.67-2.93,3.59-3.62,5.3-1.89,8.37-5.95,10.01-11.2,.3-.95,.5-1.93,.86-2.86,.48-1.26,1.41-1.99,2.8-1.99,1.47,0,2.48,.75,2.99,2.09,.55,1.42,.98,2.89,1.49,4.33,1.8,5.07,5.34,8.27,10.25,10.14,1.46,.56,2.57,1.34,2.65,3.08,.07,1.48-.49,2.51-1.92,3.03-6.74,2.49-10.76,7.3-12.27,14.29-.35,1.63-1.36,2.52-3.34,2.65Zm7.24-19.43c-.49-.63-.62-.91-.84-1.09-2.13-1.76-4.09-3.66-5.57-6.02-.54-.86-.98-.42-1.36,.16-1.44,2.19-3.22,4.06-5.28,5.66-.84,.65-.8,1.16,0,1.78,2.07,1.59,3.88,3.43,5.25,5.68,.46,.75,.91,.99,1.47,.05,1.36-2.25,3.31-3.98,5.25-5.69,.28-.25,.69-.35,1.07-.54Z"/><path d="M70.45,23.07c-1.8-.12-2.96-.92-3.35-2.52-.72-2.98-2.41-5.03-5.28-6.19-1.21-.49-1.94-1.49-1.92-2.88,.02-1.38,.75-2.32,1.99-2.82,2.77-1.11,4.46-3.11,5.19-6,.42-1.65,1.39-2.74,3.23-2.67,1.7,.07,2.7,1.09,3.02,2.66,.61,3,2.42,4.83,5.2,5.9,1.28,.49,1.79,1.63,1.87,2.93,.07,1.27-.52,2.3-1.67,2.78-2.97,1.25-4.85,3.33-5.64,6.48-.34,1.35-1.31,2.22-2.64,2.32Z"/></g></g></svg>