<?xml version="1.0" encoding="UTF-8"?><svg id="b" xmlns="http://www.w3.org/2000/svg" width="102.18" height="102.15" viewBox="0 0 102.18 102.15"><g id="c"><g><path d="M78.4,51.37c-.13,15.18-12.46,27.4-27.48,27.23-15.29-.17-27.25-12.55-27.1-28.06,.14-15.04,12.5-26.96,27.81-26.81,14.88,.15,26.91,12.56,26.77,27.64Zm-27.44,20.78c11.68,.09,21.14-9.03,21.25-20.49,.12-11.95-9.2-21.65-20.86-21.72-11.73-.08-21.29,9.32-21.36,20.99-.07,11.87,9.09,21.14,20.97,21.23Z" fill="#fff"/><path d="M73.24,31.72c-.95-.09-1.94-.59-2.49-1.74-.69-1.45-.21-2.72,.82-3.77,2.73-2.79,5.5-5.54,8.26-8.3,.92-.92,1.8-1.89,2.78-2.74,1.65-1.43,3.46-1.43,4.71-.08,1.26,1.37,1.12,3.03-.48,4.64-3.5,3.53-7.04,7.03-10.56,10.56-.77,.77-1.57,1.48-3.03,1.43Z" fill="#fff"/><path d="M31.74,28.95c-.24,2.41-3.12,3.75-4.87,2.12-4.19-3.92-8.21-8.02-12.18-12.16-1.16-1.21-.87-2.75,.33-3.91,1.3-1.26,2.85-1.24,4.16-.13,1.69,1.43,3.21,3.06,4.78,4.62,2.12,2.1,4.21,4.23,6.34,6.32,.93,.91,1.45,1.95,1.45,3.14Z" fill="#fff"/><path d="M73.59,70.51c1.17,0,2.03,.66,2.79,1.42,3.52,3.51,7.04,7.02,10.5,10.59,1.48,1.52,1.57,3.49,.4,4.71-1.3,1.35-3.18,1.27-4.88-.4-3.65-3.6-7.24-7.26-10.85-10.91-.99-1-1.49-2.15-.87-3.54,.55-1.24,1.54-1.86,2.9-1.87Z" fill="#fff"/><path d="M17.03,88.17c-1.16-.1-2.17-.63-2.68-1.77-.56-1.23-.31-2.44,.58-3.41,1.39-1.52,2.85-2.98,4.31-4.44,2.32-2.33,4.65-4.64,6.99-6.95,1.41-1.39,2.98-1.55,4.5-.26,1.44,1.22,1.39,3.03-.18,4.64-3.64,3.72-7.34,7.37-11.02,11.04-.67,.67-1.46,1.11-2.5,1.15Z" fill="#fff"/><path d="M54.05,11.19c0,2.6,0,5.21,0,7.81,0,1.95-.77,3.35-2.84,3.46-2.07,.11-3.17-1.29-3.21-3.16-.12-5.35-.13-10.72-.02-16.07C48.02,1.38,49.06,0,51.15,0c1.86,0,2.95,1.41,2.95,3.61,0,2.53,0,5.05,0,7.58h-.06Z" fill="#fff"/><path d="M91.14,48.09c2.53,0,5.05-.03,7.58,.01,2.23,.04,3.58,1.24,3.45,3.11-.14,2.03-1.42,3-3.37,3.02-5.28,.04-10.57,.04-15.85,0-2.05-.01-3.07-1.28-3.21-3.2-.12-1.76,1.21-2.89,3.35-2.94,2.68-.05,5.36-.01,8.04,0Z" fill="#fff"/><path d="M11.03,54.26c-2.37,0-4.74,.04-7.1,0-2.52-.05-3.98-1.28-3.92-3.19,.06-1.87,1.41-2.95,3.85-2.96,4.89-.02,9.78-.02,14.66,0,2.6,.01,3.82,.95,3.91,2.86,.09,1.95-1.32,3.21-3.84,3.28-2.52,.06-5.04,.01-7.56,.02Z" fill="#fff"/><path d="M54.06,90.94c0,2.6,.01,5.21,0,7.81,0,1.92-.71,3.32-2.88,3.39-2.14,.07-3.14-1.29-3.17-3.17-.11-5.28-.13-10.57,0-15.85,.06-2.33,1.38-3.47,3.27-3.28,2.1,.21,2.8,1.57,2.79,3.51-.02,2.53,0,5.06,0,7.58Z" fill="#fff"/></g></g></svg>